<?xml version="1.0" standalone="no"?>
<!DOCTYPE svg PUBLIC "-//W3C//DTD SVG 20010904//EN"
 "http://www.w3.org/TR/2001/REC-SVG-20010904/DTD/svg10.dtd">
<svg version="1.0" xmlns="http://www.w3.org/2000/svg"
 width="700.000000pt" height="700.000000pt" viewBox="0 0 700.000000 700.000000"
 preserveAspectRatio="xMidYMid meet">
<metadata>
Created by potrace 1.11, written by Peter Selinger 2001-2013
</metadata>
<g transform="translate(0.000000,700.000000) scale(0.100000,-0.100000)"
fill="#000000" stroke="none">
<path d="M3280 6994 c-19 -2 -84 -9 -145 -15 -734 -71 -1454 -395 -1995 -897
-522 -484 -871 -1068 -1035 -1734 -74 -302 -99 -512 -99 -848 0 -268 7 -363
45 -588 166 -997 771 -1881 1648 -2411 422 -255 877 -411 1396 -478 196 -25
614 -25 810 0 430 56 786 162 1155 346 728 363 1313 974 1638 1711 304 689
380 1456 216 2188 -216 964 -834 1793 -1702 2285 -397 224 -826 364 -1305 423
-115 14 -550 27 -627 18z m600 -1190 c581 -72 1137 -383 1499 -839 70 -88 156
-213 150 -218 -4 -3 -443 -281 -814 -515 -82 -53 -180 -115 -217 -138 l-68
-43 -21 42 c-110 215 -314 382 -551 451 -360 104 -731 13 -965 -238 -76 -81
-112 -133 -162 -233 -66 -134 -97 -246 -111 -405 -30 -349 103 -705 336 -901
252 -213 620 -273 946 -154 218 79 404 255 512 485 16 34 33 62 37 62 4 0 149
-76 321 -168 172 -93 424 -228 559 -301 136 -73 255 -138 265 -145 16 -12 14
-19 -31 -97 -386 -671 -1005 -1061 -1790 -1129 -1155 -98 -2117 555 -2390
1625 -60 236 -70 321 -70 615 0 290 10 379 65 601 96 384 300 746 575 1023
168 170 352 300 580 411 411 201 853 270 1345 209z"/>
</g>
</svg>
