<svg id="a293201d-46da-499e-94f6-409ca0f627e9" data-name="National" xmlns="http://www.w3.org/2000/svg" viewBox="0 0 582.37 171.69"><path d="M7.48,152.56h2.94c.39,3,1.58,5.5,6.62,5.5,3.21,0,5.7-1.89,5.7-4.73s-1.3-4-6-4.79c-5.25-.8-8.37-2.45-8.37-6.89,0-3.85,3.33-6.79,8.05-6.79,5,0,8.12,2.45,8.61,6.89H22.25c-.6-3.15-2.42-4.44-5.88-4.44s-5.21,1.71-5.21,4.06.91,3.71,6,4.48c5.57.87,8.51,2.55,8.51,7.27,0,4.2-3.68,7.39-8.64,7.39C10.35,160.51,7.94,156.83,7.48,152.56Z" fill="#fff"/><path d="M42.85,137.66H35.58v-2.48H53.17v2.48H45.9v22.53h-3Z" fill="#fff"/><path d="M64,151.06V135.18h3v15.53C67,156,68.84,158,73,158c4,0,6.37-1.61,6.37-7.73V135.18h3v15.5c0,6.08-3,9.83-9.48,9.83C67.2,160.51,64,157.15,64,151.06Z" fill="#fff"/><path d="M95.33,135.18h6.61c8.61,0,12.67,5.31,12.67,12.28v.31c0,6.93-4,12.42-12.74,12.42H95.33Zm6.47,22.53c6.44,0,9.66-3.85,9.66-10v-.28c0-5.78-2.8-9.84-9.69-9.84h-3.4v20.09Z" fill="#fff"/><path d="M126.5,135.18h14.59v2.48H129.54v8.5h9.31v2.49h-9.31v9.06h12.18v2.48H126.5Z" fill="#fff"/><path d="M153.12,135.18h3.95l12.18,20.67V135.18h2.9v25h-3.49L156,138.74v21.45h-2.9Z" fill="#fff"/><path d="M190.41,137.66h-7.27v-2.48h17.6v2.48h-7.28v22.53h-3.05Z" fill="#fff"/><path d="M226.34,152.56h2.94c.38,3,1.57,5.5,6.61,5.5,3.22,0,5.7-1.89,5.7-4.73s-1.29-4-6.05-4.79c-5.25-.8-8.36-2.45-8.36-6.89,0-3.85,3.32-6.79,8-6.79,5,0,8.11,2.45,8.6,6.89H241.1c-.59-3.15-2.41-4.44-5.87-4.44S230,139,230,141.37s.91,3.71,6,4.48c5.56.87,8.5,2.55,8.5,7.27,0,4.2-3.67,7.39-8.64,7.39C229.21,160.51,226.8,156.83,226.34,152.56Z" fill="#fff"/><path d="M256.57,135.18h14.59v2.48H259.61v8.5h9.31v2.49h-9.31v9.06h12.18v2.48H256.57Z" fill="#fff"/><path d="M283.19,135.18h7.52c4.79,0,8.75,1.95,8.75,7v.14c0,4.13-2.77,6.16-6.2,6.82l7.67,11.09h-3.4l-7.45-10.88h-3.85v10.88h-3Zm7.73,11.72c3.57,0,5.49-1.54,5.49-4.62v-.14c0-3.4-2.1-4.52-5.49-4.52h-4.69v9.28Z" fill="#fff"/><path d="M309.88,135.18h3l7.45,22.07,7.46-22.07h2.86l-8.64,25h-3.64Z" fill="#fff"/><path d="M341.86,135.18h3v25h-3Z" fill="#fff"/><path d="M357,147.84v-.28c0-7.42,5-12.77,11.75-12.77,5.22,0,9.63,2.76,10.15,8.19h-3c-.63-3.82-2.83-5.78-7.1-5.78-5.18,0-8.64,4-8.64,10.33v.28c0,6.36,3.22,10.21,8.6,10.21,4.1,0,6.93-2.06,7.56-6.12h2.84c-.88,5.77-4.87,8.61-10.47,8.61C361.41,160.51,357,155.54,357,147.84Z" fill="#fff"/><path d="M390.55,135.18h14.59v2.48H393.6v8.5h9.3v2.49h-9.3v9.06h12.17v2.48H390.55Z" fill="#fff"/><path d="M432,147.84v-.28c0-7.42,5-12.77,11.76-12.77,5.21,0,9.62,2.76,10.15,8.19h-3c-.63-3.82-2.84-5.78-7.1-5.78-5.18,0-8.65,4-8.65,10.33v.28c0,6.36,3.22,10.21,8.61,10.21,4.09,0,6.93-2.06,7.56-6.12h2.83c-.87,5.77-4.86,8.61-10.46,8.61C436.49,160.51,432,155.54,432,147.84Z" fill="#fff"/><path d="M464.4,147.84v-.28c0-7.1,5-12.7,12.32-12.7s12.21,5.6,12.21,12.63v.28c0,7.07-4.86,12.74-12.14,12.74S464.4,154.84,464.4,147.84Zm21.38-.1v-.28c0-5.6-3.29-10.15-9.06-10.15s-9.17,4.27-9.17,10.22v.28c0,6.05,4,10.18,9.24,10.18C482.35,158,485.78,153.79,485.78,147.74Z" fill="#fff"/><path d="M500.82,135.18h7.52c4.8,0,8.75,1.95,8.75,7v.14c0,4.13-2.76,6.16-6.19,6.82l7.66,11.09h-3.39l-7.46-10.88h-3.84v10.88h-3.05Zm7.73,11.72c3.57,0,5.5-1.54,5.5-4.62v-.14c0-3.4-2.1-4.52-5.5-4.52h-4.68v9.28Z" fill="#fff"/><path d="M529.61,135.18h7.11c4.79,0,8.74,2.09,8.74,7.31v.14c0,5.32-4,7.38-8.74,7.38h-4.06v10.18h-3Zm7.31,12.42c3.57,0,5.5-1.75,5.5-5v-.14c0-3.54-2.1-4.87-5.5-4.87h-4.26v10Z" fill="#fff"/><path d="M555.29,152.56h2.94c.38,3,1.57,5.5,6.61,5.5,3.22,0,5.71-1.89,5.71-4.73s-1.3-4-6.06-4.79c-5.25-.8-8.36-2.45-8.36-6.89,0-3.85,3.32-6.79,8-6.79,5,0,8.11,2.45,8.6,6.89h-2.73c-.59-3.15-2.41-4.44-5.87-4.44S559,139,559,141.37s.91,3.71,6,4.48c5.57.87,8.5,2.55,8.5,7.27,0,4.2-3.67,7.39-8.64,7.39C558.16,160.51,555.75,156.83,555.29,152.56Z" fill="#fff"/><path d="M59.49,110.79c2.53-1.34,4.5-2.3,6.38-3.41,12-7,17.86-18,19.49-31.52a2.3,2.3,0,0,0-2.24-2.54q-13.78-.27-27.56,0A3.66,3.66,0,0,0,53,75.43C49.82,84.8,45.81,88,37,88c-9.14,0-14.89-3.86-17.5-12.78a46.77,46.77,0,0,1,.4-28.66c2.81-8.28,9.19-12.08,18-11.47a13.68,13.68,0,0,1,12,9.84c.42,1.44.8,2.87,1.24,4.48H84.23C82.64,31.57,74.64,18.81,56.66,12h66.68C101,20.9,89.1,37,88.64,60.36c-.45,23,8.71,40.7,31.49,50.43Z" fill="#fff"/><path d="M452.52,53.94,470.8,43.17c.14,2,.31,3.36.31,4.72,0,19.45-.08,38.9.09,58.34,0,3.76-1,4.93-4.85,4.9-22.17-.17-44.35-.09-66.62-.53,2.67-.93,5.39-1.71,8-2.8,16.15-6.77,25-19.31,26.84-36.37a92.28,92.28,0,0,0-.68-24.62c-3-18.26-14.71-28.93-32.23-33.65-1.35-.37-2.71-.69-4.9-1.24h77.39c-3.57,2.5-6.26,4.35-8.93,6.25-4.16,3-9.88,5.13-12,9.17s-.64,10-.7,15.11C452.48,46,452.52,49.5,452.52,53.94Z" fill="#fff"/><path d="M298.64,12.3v98.35H261.27a26,26,0,0,1,.59-2.89c9.8-30.42,19.71-60.81,29.36-91.28C292.53,12.35,294.36,10.82,298.64,12.3Z" fill="#fff"/><path d="M164.19,62c-.89,4.5-1.33,9.4-2.89,13.92-3,8.59-9.81,13-18.7,12.82-8.49-.14-15.19-4.93-17.95-13.4a44,44,0,0,1-.15-27.12c2.81-9,9.53-13.62,18.93-13.54,8.93.08,15.75,5,18.35,13.82C163,52.75,163.37,57.24,164.19,62Z" fill="#fff"/><path d="M223,110.89h-58c22.52-9.71,32.63-26.75,32.61-50,0-23.72-11-40.11-33.27-49,8.08,0,16.16-.1,24.24.13,1,0,2.57,1.59,3,2.76,5.69,16.89,11.23,33.83,16.8,50.77Q215.09,86.23,221.9,107C222.29,108.18,222.57,109.43,223,110.89Z" fill="#fff"/><path d="M532,12.07c-17.17,7.22-25,20-23.25,38,1.21,12.54,7.69,21.86,20,25.69C542,79.93,555,80.56,564.91,67.94l1,.5c-1.39,5-2.19,10.35-4.31,15.07-2.74,6.1-11.7,8.56-17.73,5.51-1.22-.61-2.75-1.68-3.07-2.83-1-3.56-3.37-3.65-6.33-3.59-7.6.16-15.22.1-22.83.14a7.65,7.65,0,0,0-1.62.51c1.05,12.88,7.49,21.85,20.06,27.52H504.26V12.07Z" fill="#fff"/><path d="M374.14,87.28V69.58c0-10.11.08-20.21-.06-30.32,0-2.62.88-3.58,3.39-3.4,3,.22,6.06.08,9,.57,7.51,1.27,12.72,5.8,13.75,13.23a81.44,81.44,0,0,1,.26,21.83c-1.42,10.59-7.64,15.34-18.27,15.78C379.74,87.37,377.26,87.28,374.14,87.28Z" fill="#fff"/><path d="M243.67,76.89c-6-21.5-11.95-43-18-64.84h36.71c-6.05,21.81-12,43.33-18,64.84Z" fill="#fff"/><path d="M331.75,12.05c1.13-.08,2-.19,2.91-.2,2.08,0,4.16,0,6.52,0v98.89h-9.43Z" fill="#fff"/><path d="M539.45,45c0-7.89,4.54-13,11.61-13s11.82,5,11.84,12.77S558.36,57.41,551,57.4,539.45,52.71,539.45,45Z" fill="#fff"/></svg>