<svg id="abe05421-dd1b-4cb2-abd3-7608837af85d" data-name="National" xmlns="http://www.w3.org/2000/svg" viewBox="0 0 582.37 171.69"><text transform="translate(5.8 160.19)" font-size="34.98" fill="#fff" font-family="Graphik-Regular, Graphik" letter-spacing="0.2em">STUDENT SERVICE CORPS</text><path d="M59.49,110.79c2.53-1.34,4.5-2.3,6.38-3.41,12-7,17.86-18,19.49-31.52a2.3,2.3,0,0,0-2.24-2.54q-13.78-.27-27.56,0A3.66,3.66,0,0,0,53,75.43C49.82,84.8,45.81,88,37,88c-9.14,0-14.89-3.86-17.5-12.78a46.77,46.77,0,0,1,.4-28.66c2.81-8.28,9.19-12.08,18-11.47a13.68,13.68,0,0,1,12,9.84c.42,1.44.8,2.87,1.24,4.48H84.23C82.64,31.57,74.64,18.81,56.66,12h66.68C101,20.9,89.1,37,88.64,60.36c-.45,23,8.71,40.7,31.49,50.43Z" fill="#fff"/><path d="M452.52,53.94,470.8,43.17c.14,2,.31,3.36.31,4.72,0,19.45-.08,38.9.09,58.34,0,3.76-1,4.93-4.85,4.9-22.17-.17-44.35-.09-66.62-.53,2.67-.93,5.39-1.71,8-2.8,16.15-6.77,25-19.31,26.84-36.37a92.28,92.28,0,0,0-.68-24.62c-3-18.26-14.71-28.93-32.23-33.65-1.35-.37-2.71-.69-4.9-1.24h77.39c-3.57,2.5-6.26,4.35-8.93,6.25-4.16,3-9.88,5.13-12,9.17s-.64,10-.7,15.11C452.48,46,452.52,49.5,452.52,53.94Z" fill="#fff"/><path d="M298.64,12.3v98.35H261.27a26,26,0,0,1,.59-2.89c9.8-30.42,19.71-60.81,29.36-91.28C292.53,12.35,294.36,10.82,298.64,12.3Z" fill="#fff"/><path d="M164.19,62c-.89,4.5-1.33,9.4-2.89,13.92-3,8.59-9.81,13-18.7,12.82-8.49-.14-15.19-4.93-17.95-13.4a44,44,0,0,1-.15-27.12c2.81-9,9.53-13.62,18.93-13.54,8.93.08,15.75,5,18.35,13.82C163,52.75,163.37,57.24,164.19,62Z" fill="#fff"/><path d="M223,110.89h-58c22.52-9.71,32.63-26.75,32.61-50,0-23.72-11-40.11-33.27-49,8.08,0,16.16-.1,24.24.13,1,0,2.57,1.59,3,2.76,5.69,16.89,11.23,33.83,16.8,50.77Q215.09,86.23,221.9,107C222.29,108.18,222.57,109.43,223,110.89Z" fill="#fff"/><path d="M532,12.07c-17.17,7.22-25,20-23.25,38,1.21,12.54,7.69,21.86,20,25.69C542,79.93,555,80.56,564.91,67.94l1,.5c-1.39,5-2.19,10.35-4.31,15.07-2.74,6.1-11.7,8.56-17.73,5.51-1.22-.61-2.75-1.68-3.07-2.83-1-3.56-3.37-3.65-6.33-3.59-7.6.16-15.22.1-22.83.14a7.65,7.65,0,0,0-1.62.51c1.05,12.88,7.49,21.85,20.06,27.52H504.26V12.07Z" fill="#fff"/><path d="M374.14,87.28V69.58c0-10.11.08-20.21-.06-30.32,0-2.62.88-3.58,3.39-3.4,3,.22,6.06.08,9,.57,7.51,1.27,12.72,5.8,13.75,13.23a81.44,81.44,0,0,1,.26,21.83c-1.42,10.59-7.64,15.34-18.27,15.78C379.74,87.37,377.26,87.28,374.14,87.28Z" fill="#fff"/><path d="M243.67,76.89c-6-21.5-11.95-43-18-64.84h36.71c-6.05,21.81-12,43.33-18,64.84Z" fill="#fff"/><path d="M331.75,12.05c1.13-.08,2-.19,2.91-.2,2.08,0,4.16,0,6.52,0v98.89h-9.43Z" fill="#fff"/><path d="M539.45,45c0-7.89,4.54-13,11.61-13s11.82,5,11.84,12.77S558.36,57.41,551,57.4,539.45,52.71,539.45,45Z" fill="#fff"/></svg>